# xmcd
#
# Track frame offsets:
#	150
#	43322
#	64195
#	91495
#	121352
#	142405
#	169977
#	194890
#	218235
#	235092
#	287290
#	320160
#
# Disc length: 4632
#
# Revision: 1
# Processed by: cddbd v1.5.1PL0 Copyright (c) Steve Scherf et al.
# Submitted via: CDex 1.50
# Normalized: r0:DSETVAR1,TDELIM( - )
#
DISCID=c712160c
DTITLE=Various Artist - The Prestige Records Story - CD4
DYEAR=1999
DGENRE=Jazz
TTITLE0=Gene Ammons - Capurange (jungle Soul)
TTITLE1=George Benson - Sweet Alice Blues
TTITLE2=Richard Groove Holmes - Misty
TTITLE3=Illinois Jacquet - I wish i knew how it would feel to be Free
TTITLE4=Sonny Criss - Smile
TTITLE5=Dexter Gordon - Fried Bananas
TTITLE6=Houston person - Jamilah
TTITLE7=Gene Ammons - Jungle Strut
TTITLE8=Charles Earland - More Today than Yesterday
TTITLE9=Rusty Bryant - Soul Liberation
TTITLE10=Boogaloo Joe Jones - No Way
TTITLE11=Gene Ammonos - You Talk that Talk
EXTD=YEAR: 1999
EXTT0=
EXTT1=
EXTT2=
EXTT3=
EXTT4=
EXTT5=
EXTT6=
EXTT7=
EXTT8=
EXTT9=
EXTT10=
EXTT11=
PLAYORDER=
